# xmcd
#
# Track frame offsets:
#	150
#	17815
#	36408
#	55924
#	74494
#	90297
#	105174
#	120817
#	139518
#	154438
#
# Disc length: 2296 seconds
# Revision: 0
# Processed by: cddbd v1.5.1PL0 Copyright (c) Steve Scherf et al.
# Submitted via: cdrLabel 7.1
#
DISCID=7808f60a
DTITLE=Diverse Groninger artiesten - 
DYEAR=1900
DGENRE=
TTITLE0=Grunneger Klanken           Eltjo Doddema
TTITLE1=Mag die geern                   Eltjo Doddema
TTITLE2=Zoveul vertellen                Eltjo Doddema
TTITLE3=De groanrepubliek             Alex Vissering
TTITLE4=Mien machteg wad           Alex Vissering
TTITLE5=Mien verhoal                     Alex  Vissering
TTITLE6=Mrn                                  Alex Vissering
TTITLE7=Westerwolle                     Alex Vissering
TTITLE8=Eurobrg                           Hail gewoon
TTITLE9=Hol mie tegen                   Woarom nait
EXTD=
EXTT0=
EXTT1=
EXTT2=
EXTT3=
EXTT4=
EXTT5=
EXTT6=
EXTT7=
EXTT8=
EXTT9=
PLAYORDER=
